<svg xmlns="http://www.w3.org/2000/svg" viewBox="0 0 380 330" fill="none"><defs><linearGradient id="a" x2="1" y2="1"><stop stop-color="#2f5446"/><stop offset="1" stop-color="#142021"/></linearGradient></defs><circle cx="210" cy="167" r="128" stroke="#426155" stroke-dasharray="3 8"/><circle cx="210" cy="167" r="100" stroke="#2a4a3d"/><rect x="122" y="31" width="166" height="270" rx="29" fill="#101a1b" stroke="#6ce8cc" stroke-opacity=".5"/><rect x="133" y="43" width="144" height="244" rx="20" fill="url(#a)"/><rect x="178" y="49" width="53" height="8" rx="4" fill="#111e1c"/><rect x="151" y="81" width="109" height="85" rx="12" fill="#6ce8cc"/><path d="M173 142v-35h10l22 23 22-23h10v35h-10v-19l-22 23-22-23v19z" fill="#1b3c30"/><rect x="151" y="180" width="70" height="6" rx="3" fill="#b5e6d5"/><rect x="151" y="196" width="105" height="4" rx="2" fill="#668c7e"/><rect x="151" y="207" width="89" height="4" rx="2" fill="#668c7e"/><rect x="151" y="231" width="109" height="30" rx="8" fill="#6ce8cc"/><path d="m199 241 8 5-8 5" stroke="#143b2e" stroke-width="2" stroke-linecap="round" stroke-linejoin="round"/><rect x="44" y="196" width="108" height="52" rx="12" fill="#20382f" stroke="#528d74"/><path d="m59 222 6 6 11-13" stroke="#89f0cf" stroke-width="2" stroke-linecap="round"/><rect x="85" y="213" width="47" height="5" rx="2" fill="#c3e5d8"/><rect x="85" y="225" width="32" height="4" rx="2" fill="#789e8c"/><rect x="263" y="82" width="74" height="68" rx="14" fill="#20382f" stroke="#528d74"/><path d="m289 103-9 12 9 12m22-24 9 12-9 12m-9-26-7 30" stroke="#89f0cf" stroke-width="2" stroke-linecap="round"/></svg>
